<?xml version="1.0" encoding="iso-8859-1"?>
<!-- Generator: Adobe Illustrator 19.0.0, SVG Export Plug-In . SVG Version: 6.00 Build 0)  -->
<svg version="1.1" id="Layer_1" xmlns="http://www.w3.org/2000/svg" xmlns:xlink="http://www.w3.org/1999/xlink" x="0px" y="0px"
	 viewBox="0 0 512 512" style="enable-background:new 0 0 512 512;" xml:space="preserve">
<g>
	<g>
		<g>
			<path d="M486.4,0H25.6C11.486,0,0,11.486,0,25.6v51.2v409.6C0,500.514,11.486,512,25.6,512h460.8c14.114,0,25.6-11.486,25.6-25.6
				V76.8V25.6C512,11.486,500.514,0,486.4,0z M17.067,25.6c0-4.702,3.831-8.533,8.533-8.533h460.8c4.702,0,8.533,3.831,8.533,8.533
				v42.667H17.067V25.6z M494.933,486.4c0,4.702-3.831,8.533-8.533,8.533H25.6c-4.702,0-8.533-3.831-8.533-8.533V85.333h477.867
				V486.4z"/>
			<circle cx="42.667" cy="42.667" r="8.533"/>
			<circle cx="76.8" cy="42.667" r="8.533"/>
			<circle cx="110.933" cy="42.667" r="8.533"/>
			<circle cx="384" cy="264.533" r="8.533"/>
			<circle cx="384" cy="315.733" r="8.533"/>
			<path d="M128,264.533h17.067v59.733c0,4.71,3.823,8.533,8.533,8.533c4.71,0,8.533-3.823,8.533-8.533v-59.733H179.2
				c4.71,0,8.533-3.823,8.533-8.533s-3.823-8.533-8.533-8.533H128c-4.71,0-8.533,3.823-8.533,8.533S123.29,264.533,128,264.533z"/>
			<path d="M213.333,264.533H230.4v59.733c0,4.71,3.823,8.533,8.533,8.533s8.533-3.823,8.533-8.533v-59.733h17.067
				c4.71,0,8.533-3.823,8.533-8.533s-3.823-8.533-8.533-8.533h-51.2c-4.71,0-8.533,3.823-8.533,8.533
				S208.623,264.533,213.333,264.533z"/>
			<path d="M298.667,332.8c4.71,0,8.533-3.823,8.533-8.533v-25.6h17.067c14.114,0,25.6-11.486,25.6-25.6
				c0-14.114-11.486-25.6-25.6-25.6h-25.6c-4.71,0-8.533,3.823-8.533,8.533v34.133v34.133
				C290.133,328.977,293.956,332.8,298.667,332.8z M332.8,273.067c0,4.702-3.831,8.533-8.533,8.533H307.2v-17.067h17.067
				C328.969,264.533,332.8,268.365,332.8,273.067z"/>
			<path d="M42.667,332.8c4.71,0,8.533-3.823,8.533-8.533v-25.6h34.133v25.6c0,4.71,3.823,8.533,8.533,8.533
				c4.71,0,8.533-3.823,8.533-8.533V256c0-4.71-3.823-8.533-8.533-8.533c-4.71,0-8.533,3.823-8.533,8.533v25.6H51.2V256
				c0-4.71-3.823-8.533-8.533-8.533c-4.71,0-8.533,3.823-8.533,8.533v68.267C34.133,328.977,37.956,332.8,42.667,332.8z"/>
			<path d="M416.06,332.544c0.7,0.179,1.391,0.256,2.082,0.256c3.823,0,7.296-2.586,8.269-6.46l17.067-68.267
				c1.143-4.574-1.638-9.207-6.204-10.351c-4.548-1.135-9.207,1.638-10.351,6.204l-17.067,68.267
				C408.713,326.767,411.494,331.401,416.06,332.544z"/>
			<path d="M450.193,332.544c0.7,0.179,1.391,0.256,2.082,0.256c3.823,0,7.296-2.586,8.269-6.46l17.067-68.267
				c1.143-4.574-1.638-9.207-6.204-10.351c-4.557-1.135-9.207,1.638-10.351,6.204l-17.067,68.267
				C442.846,326.767,445.628,331.401,450.193,332.544z"/>
		</g>
	</g>
</g>
<g>
</g>
<g>
</g>
<g>
</g>
<g>
</g>
<g>
</g>
<g>
</g>
<g>
</g>
<g>
</g>
<g>
</g>
<g>
</g>
<g>
</g>
<g>
</g>
<g>
</g>
<g>
</g>
<g>
</g>
</svg>
